<svg width="60" height="63" viewBox="0 0 60 63" fill="none" xmlns="http://www.w3.org/2000/svg">
<g clip-path="url(#clip0)">
<path d="M30 62.3762C46.5421 62.3762 60 48.3853 60 31.1881C60 13.9909 46.5421 0 30 0C13.4579 0 0 13.9909 0 31.1881C0 48.3853 13.4579 62.3762 30 62.3762ZM30 2.78111C45.0672 2.78111 57.3248 15.5242 57.3248 31.1881C57.3248 46.852 45.0672 59.5951 30 59.5951C14.9328 59.5951 2.67516 46.852 2.67516 31.1881C2.67516 15.5242 14.9328 2.78111 30 2.78111Z" fill="#232323"/>
<path d="M22.6055 28.3855C25.6652 28.3855 28.1447 25.8069 28.1447 22.6269C28.1455 19.4462 25.6652 16.8677 22.6055 16.8677C19.546 16.8677 17.0664 19.4462 17.0664 22.6262C17.0694 25.8054 19.5475 28.3816 22.6055 28.3855ZM22.6055 19.6488C24.1872 19.6488 25.4696 20.9819 25.4696 22.6262C25.4703 24.2713 24.188 25.6044 22.6055 25.6044C21.0239 25.6044 19.7416 24.2713 19.7416 22.6262C19.7431 20.9826 21.0247 19.6511 22.6055 19.6488Z" fill="#232323"/>
<path d="M31.52 40.0996C31.52 43.2804 34.0003 45.8582 37.0591 45.8582C40.1187 45.8582 42.5991 43.2804 42.5991 40.0996C42.5991 36.9189 40.1187 34.3403 37.0591 34.3403C34.0011 34.3442 31.5237 36.9204 31.52 40.0996ZM39.9239 40.0996C39.9239 41.7439 38.6416 43.0771 37.0591 43.0771C35.4775 43.0771 34.1951 41.7439 34.1951 40.0996C34.1951 38.4554 35.4775 37.1222 37.0591 37.1215C38.6408 37.1238 39.9217 38.4554 39.9239 40.0996Z" fill="#232323"/>
<path d="M19.8152 47.4232C20.4339 47.843 21.2632 47.6614 21.6663 47.0181L40.5745 16.8775C40.8365 16.4609 40.8649 15.9309 40.6492 15.487C40.4327 15.0431 40.005 14.7529 39.5273 14.7266C39.0496 14.7002 38.5943 14.9408 38.3337 15.3582L19.4255 45.4988C19.0217 46.1428 19.1964 47.0042 19.8152 47.4232Z" fill="#232323"/>
</g>
<defs>
<clipPath id="clip0">
<rect width="60" height="62.3762" fill="white"/>
</clipPath>
</defs>
</svg>
